<svg xmlns="http://www.w3.org/2000/svg" xmlns:xlink="http://www.w3.org/1999/xlink" version="1.1" x="0px" y="0px" viewBox="0 0 100 100" enable-background="new 0 0 100 100" xml:space="preserve" style="max-width:100%" height="100%">
                                    <g style="color: #FFFFFF" fill="currentColor">
                                      <path d="M96.382,25.314l-3.63-1.433l2.905-10.842L25.833,2.259l-0.189,1.224l-5.861,21.834L3.618,66.251l4.678,1.846l-1.001,3.726   l27.813,7.452l0.518-1.932L9.745,70.408L27.434,4.529l65.714,10.147l-2.269,8.465l-0.003-0.001L77.438,73.287l0.016-0.04   l-0.564,2.107l1.932,0.518l5.074-18.937L96.382,25.314z M14.474,44.204L8.614,66.072l-2.401-0.948L14.474,44.204z M93.786,26.439   l-5.353,13.558l3.798-14.172L93.786,26.439z" style="" fill="currentColor"></path>
                                      <path d="M74.7,64.946c0.803-1.391,1.018-3.008,0.603-4.553l-0.323-1.208l0,0l-0.273-1.021L74.4,57.023l0,0l-7.831-29.226   c-0.572-2.132-2.772-3.401-4.901-2.83l-1.928,0.516c-0.708,0.19-1.309,0.571-1.79,1.058l-1.438-5.366   c-0.57-2.132-2.769-3.402-4.902-2.83l-1.926,0.517c-0.692,0.185-1.299,0.558-1.791,1.056l-1.179-4.398   c-0.275-1.03-0.938-1.894-1.865-2.429c-0.929-0.536-2.007-0.68-3.036-0.401l-1.927,0.516c-1.031,0.275-1.894,0.938-2.429,1.866   c-0.535,0.927-0.678,2.006-0.401,3.036l0.144,0.535c-0.661-0.181-1.372-0.21-2.079-0.02l-1.927,0.517   c-1.03,0.275-1.894,0.938-2.429,1.866c-0.535,0.927-0.678,2.006-0.401,3.036l5.204,19.425c-1.563-0.927-3.48-1.252-5.369-0.749   c-0.788,0.21-1.42,0.693-1.826,1.398c-0.408,0.705-0.513,1.494-0.301,2.28l5.76,21.498l0,0l0.903,3.371   c0.717,2.679,3.148,4.449,5.8,4.449c0.186,0,0.372-0.019,0.56-0.036l5.912,22.063l1.932-0.518L43.05,75.25l0,0l-0.014-0.05   l-0.311-1.158l0,0l-0.194-0.724l-0.963,0.259c-2.131,0.57-4.331-0.698-4.902-2.83l-0.324-1.209l0,0l-6.339-23.66   c-0.074-0.277-0.044-0.513,0.101-0.763c0.144-0.248,0.331-0.392,0.609-0.466c2.663-0.706,5.407,0.877,6.12,3.539l0.478,1.782   l2.208,8.238l1.932-0.518l-0.228-0.847h0.001l-1.981-7.392l-6.947-25.93c-0.138-0.515-0.066-1.054,0.202-1.519   s0.699-0.797,1.214-0.935l1.927-0.517c1.065-0.286,2.166,0.35,2.453,1.415l2.361,8.814l0,0l4.237,15.815l1.932-0.518l-6.599-24.629   c0,0,0,0,0-0.001l-1.035-3.862c-0.138-0.515-0.066-1.054,0.202-1.519c0.268-0.465,0.699-0.797,1.213-0.935l1.928-0.516   c0.515-0.138,1.054-0.066,1.519,0.202c0.464,0.268,0.796,0.699,0.934,1.214l7.635,28.491l1.932-0.518l-1.94-7.242l0,0   l-3.623-13.522c-0.138-0.515-0.066-1.054,0.202-1.518c0.269-0.465,0.699-0.797,1.214-0.935l1.926-0.517   c1.065-0.286,2.168,0.35,2.453,1.416l6.471,24.146l1.932-0.518l-4.141-15.452c-0.285-1.066,0.35-2.167,1.416-2.453l1.927-0.516   c1.065-0.28,2.167,0.35,2.453,1.416l8.137,30.366l0.597,2.229c0.276,1.029,0.133,2.107-0.403,3.035   c-0.535,0.929-1.397,1.592-2.427,1.867l-0.963,0.258l0.259,0.966l6.146,22.939l1.932-0.518l-5.913-22.068   C73.126,66.877,74.068,66.041,74.7,64.946z" style="" fill="currentColor"></path>
                                    </g>
                                  </svg>